# Blender v2.92.0 OBJ File: ''
# www.blender.org
o Text
v 1.383347 1.013439 0.355881
v 1.294347 1.013439 0.355881
v 1.294347 0.331439 0.355881
v 1.383347 0.331439 0.355881
v 1.063347 0.873439 0.355881
v 0.896347 0.710439 0.355881
v 0.896347 0.700439 0.355881
v 0.974347 0.700439 0.355881
v 0.974347 0.463439 0.355881
v 1.120347 0.322439 0.355881
v 1.228347 0.352439 0.355881
v 1.228347 0.435439 0.355881
v 1.127347 0.402439 0.355881
v 1.063347 0.470439 0.355881
v 1.063347 0.700439 0.355881
v 1.205347 0.700439 0.355881
v 1.205347 0.780439 0.355881
v 1.063347 0.780439 0.355881
v 0.546347 1.013439 0.355881
v 0.457347 1.013439 0.355881
v 0.457347 0.331439 0.355881
v 0.546347 0.331439 0.355881
v 0.546347 0.653439 0.355881
v 0.658347 0.718439 0.355881
v 0.746347 0.609439 0.355881
v 0.746347 0.331439 0.355881
v 0.835347 0.331439 0.355881
v 0.835347 0.606439 0.355881
v 0.682347 0.789439 0.355881
v 0.548347 0.721439 0.355881
v 0.546347 0.721439 0.355881
vn 0.0000 0.0000 1.0000
s off
f 3//1 1//1 2//1
f 3//1 4//1 1//1
f 6//1 18//1 5//1
f 6//1 17//1 18//1
f 6//1 16//1 17//1
f 7//1 16//1 6//1
f 8//1 16//1 7//1
f 9//1 15//1 8//1
f 15//1 16//1 8//1
f 9//1 14//1 15//1
f 9//1 13//1 14//1
f 10//1 13//1 9//1
f 13//1 11//1 12//1
f 10//1 11//1 13//1
f 21//1 19//1 20//1
f 21//1 31//1 19//1
f 30//1 24//1 29//1
f 24//1 28//1 29//1
f 21//1 30//1 31//1
f 21//1 23//1 30//1
f 23//1 24//1 30//1
f 25//1 28//1 24//1
f 21//1 22//1 23//1
f 26//1 28//1 25//1
f 26//1 27//1 28//1
